<?xml version="1.0" encoding="UTF-8" standalone="no"?>
<svg
   data-v-423bf9ae=""
   viewBox="0 0 279.21677 90"
   class="iconLeft"
   version="1.1"
   id="svg3"
   sodipodi:docname="default-monochrome-white.svg"
   width="279.21677"
   height="90"
   inkscape:version="1.3.2 (091e20ef0f, 2023-11-25, custom)"
   xmlns:inkscape="http://www.inkscape.org/namespaces/inkscape"
   xmlns:sodipodi="http://sodipodi.sourceforge.net/DTD/sodipodi-0.dtd"
   xmlns:xlink="http://www.w3.org/1999/xlink"
   xmlns="http://www.w3.org/2000/svg"
   xmlns:svg="http://www.w3.org/2000/svg">
  <defs
     id="defs3">
    <linearGradient
       id="linearGradient16"
       inkscape:collect="always">
      <stop
         style="stop-color:#ef7b45;stop-opacity:1;"
         offset="0"
         id="stop15" />
      <stop
         style="stop-color:#06ab6c;stop-opacity:1;"
         offset="0.14164236"
         id="stop17" />
      <stop
         style="stop-color:#ef7b45;stop-opacity:1;"
         offset="0.82936382"
         id="stop16" />
    </linearGradient>
    <linearGradient
       id="linearGradient14"
       inkscape:collect="always">
      <stop
         style="stop-color:#06ab6c;stop-opacity:1;"
         offset="0"
         id="stop13" />
      <stop
         style="stop-color:#ef7b45;stop-opacity:1;"
         offset="1"
         id="stop14" />
    </linearGradient>
    <linearGradient
       id="linearGradient8"
       inkscape:collect="always">
      <stop
         style="stop-color:#06ab6c;stop-opacity:1;"
         offset="0"
         id="stop7" />
      <stop
         style="stop-color:#ef7b45;stop-opacity:1;"
         offset="0.66194355"
         id="stop8" />
    </linearGradient>
    <linearGradient
       id="linearGradient1"
       inkscape:collect="always">
      <stop
         style="stop-color:#06ab6c;stop-opacity:1;"
         offset="0"
         id="stop1" />
      <stop
         style="stop-color:#ef7b45;stop-opacity:1;"
         offset="1"
         id="stop2" />
    </linearGradient>
    <linearGradient
       inkscape:collect="always"
       xlink:href="#linearGradient1"
       id="linearGradient2"
       x1="-4.9599976e-08"
       y1="45.000001"
       x2="279.21678"
       y2="45.000001"
       gradientUnits="userSpaceOnUse" />
    <linearGradient
       inkscape:collect="always"
       xlink:href="#linearGradient8"
       id="linearGradient10"
       gradientUnits="userSpaceOnUse"
       x1="-4.9599976e-08"
       y1="45.000001"
       x2="279.21678"
       y2="45.000001" />
    <linearGradient
       inkscape:collect="always"
       xlink:href="#linearGradient16"
       id="linearGradient12"
       gradientUnits="userSpaceOnUse"
       x1="-4.9599976e-08"
       y1="45.000001"
       x2="377.53616"
       y2="49.539577" />
    <linearGradient
       inkscape:collect="always"
       xlink:href="#linearGradient14"
       id="linearGradient13"
       gradientUnits="userSpaceOnUse"
       x1="-4.9599976e-08"
       y1="45.000001"
       x2="112.3746"
       y2="46.186455" />
  </defs>
  <sodipodi:namedview
     id="namedview3"
     pagecolor="#ffffff"
     bordercolor="#000000"
     borderopacity="0.25"
     inkscape:showpageshadow="2"
     inkscape:pageopacity="0.0"
     inkscape:pagecheckerboard="true"
     inkscape:deskcolor="#d1d1d1"
     inkscape:zoom="3.0951649"
     inkscape:cx="144.58034"
     inkscape:cy="67.524673"
     inkscape:window-width="1904"
     inkscape:window-height="983"
     inkscape:window-x="26"
     inkscape:window-y="23"
     inkscape:window-maximized="0"
     inkscape:current-layer="g1" />
  <!---->
  <!---->
  <!---->
  <!---->
  <g
     id="g1"
     style="fill:url(#linearGradient2)">
    <g
       data-v-423bf9ae=""
       id="cc88463c-d136-4e3d-b27f-ceb50bd2fe77"
       fill="#ffffff"
       transform="matrix(6.1287026,0,0,6.1287026,106.50994,-11.717834)"
       style="fill:url(#linearGradient10)" />
    <g
       data-v-423bf9ae=""
       id="48ea8840-4e8f-45a3-b93c-4cb1fbfc404a"
       transform="matrix(1.1381744,0,0,1.1381744,-6.7334398,-6.7334398)"
       stroke="none"
       fill="#ffffff"
       style="fill:url(#linearGradient13)">
      <path
         id="path3"
         style="fill:url(#linearGradient12)"
         d="m 35.232,49.825 h -3 c 0,-9.7 7.892,-17.592 17.593,-17.592 v 3 C 41.778,35.232 35.232,41.778 35.232,49.825 Z m -26.316,0 h -3 C 5.916,25.614 25.613,5.916 49.825,5.916 v 3 C 27.268,8.916 8.916,27.268 8.916,49.825 Z M 66.09,18.65 66.66,15.98 c 1.45,0.31 3.34,0.59 5.46,0.59 4.88,0 7.76,-1.69 7.76,-1.69 V 10.6 c 0,0 -3.26,1.02 -7.76,1.02 -3.83,0 -7.73,-0.73 -8.86,-0.95 L 63.08,10.63 62.94,10.6 61.49,16.65 A 34.949,34.949 0 0 0 49.83,14.66 c -19.4,0 -35.17,15.77 -35.17,35.16 0,19.4 15.77,35.17 35.17,35.17 19.39,0 35.16,-15.77 35.16,-35.17 0,-13.53 -7.67,-25.29 -18.9,-31.17 z M 63.37,31.3 c 5.7,4.19 9.399,10.93 9.399,18.52 0,12.66 -10.289,22.95 -22.939,22.95 -12.66,0 -22.96,-10.29 -22.96,-22.95 0,-12.65 10.3,-22.95 22.96,-22.95 3.11,0 6.08,0.62 8.78,1.75 l -3.27,13.62 a 9.353,9.353 0 0 0 -5.51,-1.79 c -5.18,0 -9.38,4.2 -9.38,9.37 0,5.18 4.2,9.38 9.38,9.38 4.47,0 8.22,-3.14 9.14,-7.35 l 0.08,-0.39 z M 49.83,81.17 c -17.29,0 -31.36,-14.06 -31.36,-31.35 0,-17.28 14.07,-31.34 31.36,-31.34 3.78,0 7.41,0.67 10.76,1.91 l -1.32,5.5 a 25.334,25.334 0 0 0 -9.439,-1.81 c -14.2,0 -25.75,11.55 -25.75,25.74 0,14.2 11.55,25.75 25.75,25.75 14.189,0 25.74,-11.55 25.74,-25.75 0,-8.95 -4.601,-16.86 -11.561,-21.47 l 1.24,-5.8 c 9.5,5.39 15.92,15.59 15.92,27.27 0,17.29 -14.06,31.35 -31.34,31.35 z m 93.38922,-13.179217 c 0,1.66925 -1.34617,3.01542 -3.01542,3.01542 -1.66925,0 -3.01542,-1.34617 -3.01542,-3.01542 V 30.728812 c 0,-1.723097 -0.70001,-3.392347 -1.83079,-4.576977 -1.13079,-1.130782 -2.5308,-1.83079 -4.03851,-1.83079 -1.50771,0 -2.96158,0.700008 -3.98466,1.83079 -0.37693,0.376928 -0.70001,0.807702 -0.9154,1.292323 -0.59231,-2.261565 -1.66925,-4.253895 -3.12311,-5.869299 2.15387,-2.046178 4.90005,-3.284653 8.02317,-3.284653 6.5693,0 11.90014,5.600065 11.90014,12.438606 z M 125.50363,30.836505 v 0.269234 c -0.16155,1.615403 -1.45387,2.800033 -3.01542,2.800033 -1.56156,0 -2.85388,-1.18463 -3.01542,-2.800033 v -0.269234 c 0,-3.553887 -2.6385,-6.407767 -5.81546,-6.407767 -3.2308,0 -5.8693,2.85388 -5.8693,6.407767 v 0.269234 c -0.16154,1.615403 -1.45386,2.800033 -3.01541,2.800033 -1.56156,0 -2.85388,-1.18463 -3.01542,-2.800033 v -0.269234 c 0,-6.892388 5.33083,-12.438606 11.90013,-12.438606 3.50004,0 6.62316,1.561557 8.83088,4.146202 1.83079,2.100025 2.96157,4.900057 3.01542,7.915477 z m -20.73101,4.361589 c 1.18462,0 2.26156,-0.538467 3.01541,-1.292322 v 34.085011 c 0,1.66925 -1.34616,3.01542 -3.01541,3.01542 -1.66926,0 -3.01542,-1.34617 -3.01542,-3.01542 V 33.905772 c 0.8077,0.753855 1.88463,1.292322 3.01542,1.292322 z m 20.73101,32.792689 c 0,1.66925 -1.34617,3.01542 -3.01542,3.01542 -1.66925,0 -3.01542,-1.34617 -3.01542,-3.01542 V 33.905772 c 0.75385,0.753855 1.83079,1.292322 3.01542,1.292322 1.13078,0 2.26156,-0.538467 3.01542,-1.292322 z M 153.77318,55.49833 c -0.75385,-0.753855 -1.83079,-1.238476 -3.01542,-1.238476 -1.18462,0 -2.26156,0.484621 -3.01541,1.238476 V 34.444239 c 0,-1.66925 1.34616,-3.015419 3.01541,-3.015419 1.66926,0 3.01542,1.346169 3.01542,3.015419 z m 17.71559,0 c -0.8077,-0.753855 -1.88463,-1.238476 -3.01541,-1.238476 -1.18463,0 -2.26157,0.484621 -3.01542,1.238476 V 34.444239 c 0,-1.66925 1.34617,-3.015419 3.01542,-3.015419 1.66925,0 3.01541,1.346169 3.01541,3.015419 z m -11.90013,15.507873 c -6.51546,0 -11.84629,-5.600065 -11.84629,-12.438606 0,-1.669251 1.34616,-3.01542 3.01541,-3.01542 1.66926,0 3.01542,1.346169 3.01542,3.01542 0,1.723097 0.59232,3.392347 1.8308,4.576976 1.02308,1.238476 2.47695,1.83079 3.98466,1.83079 1.50771,0 2.90772,-0.592314 4.03851,-1.83079 1.13078,-1.184629 1.83079,-2.853879 1.83079,-4.576976 0,-1.669251 1.34617,-3.01542 3.01542,-3.01542 1.66925,0 3.01541,1.346169 3.01541,3.01542 0,6.838541 -5.33083,12.438606 -11.90013,12.438606 z M 176.0119,34.444239 c 0,-1.66925 1.34617,-3.015419 3.01542,-3.015419 h 19.81562 c 1.07693,0 2.10002,0.592314 2.63849,1.50771 0.53847,0.969242 0.53847,2.100024 -0.0538,3.015419 l -7.64624,13.030921 c -0.26923,-1.023089 -0.96924,-2.046178 -1.93848,-2.638492 -0.70001,-0.376928 -1.45387,-0.592315 -2.26157,-0.592315 -0.32308,0 -0.70001,0.05385 -0.96924,0.16154 l 4.9539,-8.453944 h -14.53863 c -1.66925,0 -3.01542,-1.346169 -3.01542,-3.01542 z m 3.01542,36.561964 c -1.07693,0 -2.04617,-0.592315 -2.58464,-1.50771 -0.59232,-0.969242 -0.48462,-2.100024 0,-3.01542 l 10.55397,-17.930977 c 0.86155,-1.453863 2.74618,-1.884638 4.1462,-1.076936 1.45386,0.861549 1.88464,2.746186 1.07694,4.146202 l -7.91548,13.354001 h 14.53863 c 1.66925,0 3.01542,1.34617 3.01542,3.01542 0,1.66925 -1.34617,3.01542 -3.01542,3.01542 z m 33.38501,-46.739005 c 0,1.723097 -1.34617,3.069267 -3.01542,3.069267 -1.66925,0 -3.01542,-1.34617 -3.01542,-3.069267 0,-1.66925 1.34617,-3.01542 3.01542,-3.01542 1.66925,0 3.01542,1.34617 3.01542,3.01542 z m 0,19.761768 c -0.75386,-0.753855 -1.77695,-1.238476 -3.01542,-1.238476 -1.13078,0 -2.26157,0.484621 -3.01542,1.238476 v -9.584727 c 0,-1.66925 1.34617,-3.015419 3.01542,-3.015419 1.66925,0 3.01542,1.346169 3.01542,3.015419 z m 0,3.069267 v 20.89255 c 0,1.66925 -1.34617,3.01542 -3.01542,3.01542 -1.66925,0 -3.01542,-1.34617 -3.01542,-3.01542 v -20.89255 -0.269234 c 0.16154,-1.50771 1.45386,-2.746186 3.01542,-2.746186 1.6154,0 2.85388,1.238476 3.01542,2.746186 z M 222.9663,21.413319 c 0,-1.66925 -1.34617,-3.01542 -3.01542,-3.01542 -1.66925,0 -3.01542,1.34617 -3.01542,3.01542 V 31.59036 c 0.75385,-0.753855 1.88463,-1.238476 3.01542,-1.238476 1.23847,0 2.26156,0.484621 3.01542,1.238476 z m 14.70017,10.230888 c -1.66925,0 -2.90773,1.292323 -3.01542,2.853879 v 0.161541 c 0,1.723096 -0.64616,3.392347 -1.77695,4.630823 -0.48462,0.484621 -1.07693,0.969242 -1.66925,1.238476 -0.75385,0.376927 -1.50771,0.538467 -2.4231,0.538467 -0.8077,0 -1.56156,-0.16154 -2.31541,-0.538467 -0.64616,-0.269234 -1.23848,-0.753855 -1.66925,-1.238476 -1.13079,-1.238476 -1.83079,-2.907727 -1.83079,-4.630823 0,-1.669251 -1.34617,-3.01542 -3.01542,-3.01542 -1.66925,0 -3.01542,1.346169 -3.01542,3.01542 0,3.553887 1.45386,6.784694 3.71542,9.046259 0.64617,0.700008 1.50771,1.292322 2.31542,1.83079 1.07693,0.592315 2.20771,1.023089 3.50004,1.34617 0.75385,0.16154 1.56155,0.215387 2.31541,0.215387 0.8077,0 1.66925,-0.05385 2.4231,-0.215387 2.15387,-0.430775 4.20005,-1.561557 5.81546,-3.17696 2.26156,-2.261565 3.66158,-5.492372 3.66158,-9.046259 v -0.161541 c -0.0539,-1.561556 -1.40002,-2.853879 -3.01542,-2.853879 z m -17.87713,12.977074 c -1.18463,-1.130783 -2.15387,-2.476952 -2.85388,-3.984662 v 27.354164 c 0,1.66925 1.34617,3.01542 3.01542,3.01542 1.66925,0 3.01542,-1.34617 3.01542,-3.01542 V 52.375217 c 0.10769,-1.66925 0.7,-3.069266 1.83079,-4.307742 l 0.21538,-0.215387 c -0.7,-0.215388 -1.34617,-0.538468 -2.04617,-0.915396 -1.13079,-0.592314 -2.26157,-1.346169 -3.17696,-2.315411 z m 12.76168,3.230807 c 0.16154,0.107693 0.21539,0.16154 0.32308,0.215387 1.13079,1.292322 1.77695,2.907726 1.77695,4.630823 v 15.292485 c 0,1.66925 1.34617,3.01542 3.01542,3.01542 1.66925,0 3.01542,-1.34617 3.01542,-3.01542 V 52.698298 c 0,-3.01542 -1.02309,-5.869299 -2.85388,-8.077017 -1.45387,1.50771 -3.23081,2.584645 -5.27699,3.230807 z m 18.68484,-23.58489 c 0,1.723097 -1.34617,3.069267 -3.01542,3.069267 -1.66925,0 -3.01542,-1.34617 -3.01542,-3.069267 0,-1.66925 1.34617,-3.01542 3.01542,-3.01542 1.66925,0 3.01542,1.34617 3.01542,3.01542 z m 0,19.761768 c -0.75386,-0.753855 -1.77695,-1.238476 -3.01542,-1.238476 -1.13079,0 -2.26157,0.484621 -3.01542,1.238476 v -9.584727 c 0,-1.66925 1.34617,-3.015419 3.01542,-3.015419 1.66925,0 3.01542,1.346169 3.01542,3.015419 z m 0,3.069267 v 20.89255 c 0,1.66925 -1.34617,3.01542 -3.01542,3.01542 -1.66925,0 -3.01542,-1.34617 -3.01542,-3.01542 v -20.89255 -0.269234 c 0.16154,-1.50771 1.45386,-2.746186 3.01542,-2.746186 1.6154,0 2.85388,1.238476 3.01542,2.746186 z" />
    </g>
  </g>
  <!---->
</svg>
