<?xml version="1.0" encoding="UTF-8" standalone="no"?>
<svg
   data-v-423bf9ae=""
   viewBox="0 0 242.1604 90"
   class="iconLeft"
   version="1.1"
   id="svg3"
   sodipodi:docname="default-monochrome-white.svg"
   width="242.1604"
   height="90"
   inkscape:version="1.3.2 (091e20ef0f, 2023-11-25, custom)"
   xmlns:inkscape="http://www.inkscape.org/namespaces/inkscape"
   xmlns:sodipodi="http://sodipodi.sourceforge.net/DTD/sodipodi-0.dtd"
   xmlns:xlink="http://www.w3.org/1999/xlink"
   xmlns="http://www.w3.org/2000/svg"
   xmlns:svg="http://www.w3.org/2000/svg">
  <defs
     id="defs3">
    <linearGradient
       id="linearGradient61"
       inkscape:collect="always">
      <stop
         style="stop-color:#ef7b45;stop-opacity:1;"
         offset="0.58631504"
         id="stop60" />
      <stop
         style="stop-color:#06ab6c;stop-opacity:1;"
         offset="1"
         id="stop61" />
    </linearGradient>
    <linearGradient
       id="linearGradient59"
       inkscape:collect="always">
      <stop
         style="stop-color:#ef7b45;stop-opacity:1;"
         offset="0"
         id="stop58" />
      <stop
         style="stop-color:#06ab6c;stop-opacity:1;"
         offset="0.61492217"
         id="stop59" />
    </linearGradient>
    <linearGradient
       id="linearGradient56"
       inkscape:collect="always">
      <stop
         style="stop-color:#06ab6c;stop-opacity:1;"
         offset="0.13800389"
         id="stop56" />
      <stop
         style="stop-color:#ef7b45;stop-opacity:1;"
         offset="1"
         id="stop57" />
    </linearGradient>
    <linearGradient
       id="linearGradient1"
       inkscape:collect="always">
      <stop
         style="stop-color:#06ab6c;stop-opacity:1;"
         offset="0"
         id="stop1" />
      <stop
         style="stop-color:#ef7b45;stop-opacity:1;"
         offset="1"
         id="stop2" />
    </linearGradient>
    <linearGradient
       inkscape:collect="always"
       xlink:href="#linearGradient1"
       id="linearGradient2"
       x1="-4.9599976e-08"
       y1="45"
       x2="279.21677"
       y2="45"
       gradientUnits="userSpaceOnUse" />
    <linearGradient
       inkscape:collect="always"
       xlink:href="#linearGradient59"
       id="linearGradient57"
       x1="5.9159999"
       y1="45.452999"
       x2="84.989998"
       y2="45.452999"
       gradientUnits="userSpaceOnUse" />
    <linearGradient
       inkscape:collect="always"
       xlink:href="#linearGradient56"
       id="linearGradient58"
       x1="-16.142483"
       y1="9.6532946"
       x2="38.815075"
       y2="9.0480108"
       gradientUnits="userSpaceOnUse" />
    <linearGradient
       inkscape:collect="always"
       xlink:href="#linearGradient61"
       id="linearGradient60"
       gradientUnits="userSpaceOnUse"
       x1="-97.600517"
       y1="45.452999"
       x2="84.989998"
       y2="45.452999" />
    <linearGradient
       inkscape:collect="always"
       xlink:href="#linearGradient56"
       id="linearGradient62"
       gradientUnits="userSpaceOnUse"
       x1="-16.142483"
       y1="9.6532946"
       x2="38.815075"
       y2="9.0480108" />
    <linearGradient
       inkscape:collect="always"
       xlink:href="#linearGradient59"
       id="linearGradient63"
       gradientUnits="userSpaceOnUse"
       x1="5.9159999"
       y1="45.452999"
       x2="84.989998"
       y2="45.452999" />
  </defs>
  <sodipodi:namedview
     id="namedview3"
     pagecolor="#ffffff"
     bordercolor="#000000"
     borderopacity="0.25"
     inkscape:showpageshadow="2"
     inkscape:pageopacity="0.0"
     inkscape:pagecheckerboard="true"
     inkscape:deskcolor="#d1d1d1"
     inkscape:zoom="3.0951649"
     inkscape:cx="154.91905"
     inkscape:cy="67.524674"
     inkscape:window-width="1904"
     inkscape:window-height="983"
     inkscape:window-x="26"
     inkscape:window-y="23"
     inkscape:window-maximized="0"
     inkscape:current-layer="g1"
     showgrid="false" />
  <!---->
  <!---->
  <!---->
  <!---->
  <g
     id="g1"
     style="fill:url(#linearGradient2)">
    <g
       data-v-423bf9ae=""
       id="cc88463c-d136-4e3d-b27f-ceb50bd2fe77"
       fill="#ffffff"
       transform="matrix(4.7938187,0,0,4.0284539,107.07059,9.9505388)"
       style="fill:url(#linearGradient58)">
      <path
         d="M 8.12,13.44 C 8.12,13.75 7.87,14 7.56,14 7.25,14 7,13.75 7,13.44 V 6.52 C 7,6.2 6.87,5.89 6.66,5.67 6.45,5.46 6.19,5.33 5.91,5.33 5.63,5.33 5.36,5.46 5.17,5.67 5.1,5.74 5.04,5.82 5,5.91 4.89,5.49 4.69,5.12 4.42,4.82 4.82,4.44 5.33,4.21 5.91,4.21 c 1.22,0 2.21,1.04 2.21,2.31 z M 4.83,6.54 V 6.59 C 4.8,6.89 4.56,7.11 4.27,7.11 3.98,7.11 3.74,6.89 3.71,6.59 V 6.54 C 3.71,5.88 3.22,5.35 2.63,5.35 2.03,5.35 1.54,5.88 1.54,6.54 V 6.59 C 1.51,6.89 1.27,7.11 0.98,7.11 0.69,7.11 0.45,6.89 0.42,6.59 V 6.54 C 0.42,5.26 1.41,4.23 2.63,4.23 3.28,4.23 3.86,4.52 4.27,5 4.61,5.39 4.82,5.91 4.83,6.47 Z M 0.98,7.35 c 0.22,0 0.42,-0.1 0.56,-0.24 v 6.33 C 1.54,13.75 1.29,14 0.98,14 0.67,14 0.42,13.75 0.42,13.44 V 7.11 c 0.15,0.14 0.35,0.24 0.56,0.24 z m 3.85,6.09 C 4.83,13.75 4.58,14 4.27,14 3.96,14 3.71,13.75 3.71,13.44 V 7.11 c 0.14,0.14 0.34,0.24 0.56,0.24 0.21,0 0.42,-0.1 0.56,-0.24 z m 5.25,-2.32 C 9.94,10.98 9.74,10.89 9.52,10.89 9.3,10.89 9.1,10.98 8.96,11.12 V 7.21 c 0,-0.31 0.25,-0.56 0.56,-0.56 0.31,0 0.56,0.25 0.56,0.56 z m 3.29,0 c -0.15,-0.14 -0.35,-0.23 -0.56,-0.23 -0.22,0 -0.42,0.09 -0.56,0.23 V 7.21 c 0,-0.31 0.25,-0.56 0.56,-0.56 0.31,0 0.56,0.25 0.56,0.56 z M 11.16,14 c -1.21,0 -2.2,-1.04 -2.2,-2.31 0,-0.31 0.25,-0.56 0.56,-0.56 0.31,0 0.56,0.25 0.56,0.56 0,0.32 0.11,0.63 0.34,0.85 0.19,0.23 0.46,0.34 0.74,0.34 0.28,0 0.54,-0.11 0.75,-0.34 0.21,-0.22 0.34,-0.53 0.34,-0.85 0,-0.31 0.25,-0.56 0.56,-0.56 0.31,0 0.56,0.25 0.56,0.56 0,1.27 -0.99,2.31 -2.21,2.31 z m 3.05,-6.79 c 0,-0.31 0.25,-0.56 0.56,-0.56 h 3.68 c 0.2,0 0.39,0.11 0.49,0.28 0.1,0.18 0.1,0.39 -0.01,0.56 L 17.51,9.91 C 17.46,9.72 17.33,9.53 17.15,9.42 17.02,9.35 16.88,9.31 16.73,9.31 c -0.06,0 -0.13,0.01 -0.18,0.03 l 0.92,-1.57 h -2.7 c -0.31,0 -0.56,-0.25 -0.56,-0.56 z M 14.77,14 c -0.2,0 -0.38,-0.11 -0.48,-0.28 -0.11,-0.18 -0.09,-0.39 0,-0.56 l 1.96,-3.33 c 0.16,-0.27 0.51,-0.35 0.77,-0.2 0.27,0.16 0.35,0.51 0.2,0.77 l -1.47,2.48 h 2.7 c 0.31,0 0.56,0.25 0.56,0.56 0,0.31 -0.25,0.56 -0.56,0.56 z m 6.2,-8.68 c 0,0.32 -0.25,0.57 -0.56,0.57 -0.31,0 -0.56,-0.25 -0.56,-0.57 0,-0.31 0.25,-0.56 0.56,-0.56 0.31,0 0.56,0.25 0.56,0.56 z m 0,3.67 C 20.83,8.85 20.64,8.76 20.41,8.76 20.2,8.76 19.99,8.85 19.85,8.99 V 7.21 c 0,-0.31 0.25,-0.56 0.56,-0.56 0.31,0 0.56,0.25 0.56,0.56 z m 0,0.57 v 3.88 c 0,0.31 -0.25,0.56 -0.56,0.56 -0.31,0 -0.56,-0.25 -0.56,-0.56 V 9.56 9.51 C 19.88,9.23 20.12,9 20.41,9 c 0.3,0 0.53,0.23 0.56,0.51 z m 1.96,-4.77 c 0,-0.31 -0.25,-0.56 -0.56,-0.56 -0.31,0 -0.56,0.25 -0.56,0.56 v 1.89 c 0.14,-0.14 0.35,-0.23 0.56,-0.23 0.23,0 0.42,0.09 0.56,0.23 z m 2.73,1.9 c -0.31,0 -0.54,0.24 -0.56,0.53 v 0.03 c 0,0.32 -0.12,0.63 -0.33,0.86 -0.09,0.09 -0.2,0.18 -0.31,0.23 -0.14,0.07 -0.28,0.1 -0.45,0.1 -0.15,0 -0.29,-0.03 -0.43,-0.1 C 23.46,8.29 23.35,8.2 23.27,8.11 23.06,7.88 22.93,7.57 22.93,7.25 c 0,-0.31 -0.25,-0.56 -0.56,-0.56 -0.31,0 -0.56,0.25 -0.56,0.56 0,0.66 0.27,1.26 0.69,1.68 0.12,0.13 0.28,0.24 0.43,0.34 0.2,0.11 0.41,0.19 0.65,0.25 0.14,0.03 0.29,0.04 0.43,0.04 0.15,0 0.31,-0.01 0.45,-0.04 0.4,-0.08 0.78,-0.29 1.08,-0.59 0.42,-0.42 0.68,-1.02 0.68,-1.68 V 7.22 C 26.21,6.93 25.96,6.69 25.66,6.69 Z M 22.34,9.1 C 22.12,8.89 21.94,8.64 21.81,8.36 v 5.08 c 0,0.31 0.25,0.56 0.56,0.56 0.31,0 0.56,-0.25 0.56,-0.56 v -2.9 c 0.02,-0.31 0.13,-0.57 0.34,-0.8 L 23.31,9.7 C 23.18,9.66 23.06,9.6 22.93,9.53 22.72,9.42 22.51,9.28 22.34,9.1 Z m 2.37,0.6 c 0.03,0.02 0.04,0.03 0.06,0.04 0.21,0.24 0.33,0.54 0.33,0.86 v 2.84 c 0,0.31 0.25,0.56 0.56,0.56 0.31,0 0.56,-0.25 0.56,-0.56 V 10.6 c 0,-0.56 -0.19,-1.09 -0.53,-1.5 -0.27,0.28 -0.6,0.48 -0.98,0.6 z m 3.47,-4.38 c 0,0.32 -0.25,0.57 -0.56,0.57 -0.31,0 -0.56,-0.25 -0.56,-0.57 0,-0.31 0.25,-0.56 0.56,-0.56 0.31,0 0.56,0.25 0.56,0.56 z m 0,3.67 C 28.04,8.85 27.85,8.76 27.62,8.76 27.41,8.76 27.2,8.85 27.06,8.99 V 7.21 c 0,-0.31 0.25,-0.56 0.56,-0.56 0.31,0 0.56,0.25 0.56,0.56 z m 0,0.57 v 3.88 c 0,0.31 -0.25,0.56 -0.56,0.56 -0.31,0 -0.56,-0.25 -0.56,-0.56 V 9.56 9.51 C 27.09,9.23 27.33,9 27.62,9 c 0.3,0 0.53,0.23 0.56,0.51 z"
         id="path1"
         style="fill:url(#linearGradient62);fill-opacity:1" />
    </g>
    <g
       data-v-423bf9ae=""
       id="48ea8840-4e8f-45a3-b93c-4cb1fbfc404a"
       transform="matrix(1.1381744,0,0,1.1381744,-6.7334398,-6.7334398)"
       stroke="none"
       fill="#ffffff"
       style="fill:url(#linearGradient57)">
      <path
         d="m 66.09,18.65 0.57,-2.67 c 1.45,0.31 3.34,0.59 5.46,0.59 4.88,0 7.76,-1.69 7.76,-1.69 V 10.6 c 0,0 -3.26,1.02 -7.76,1.02 -3.83,0 -7.73,-0.73 -8.86,-0.95 L 63.08,10.63 62.94,10.6 61.49,16.65 A 34.949,34.949 0 0 0 49.83,14.66 c -19.4,0 -35.17,15.77 -35.17,35.16 0,19.4 15.77,35.17 35.17,35.17 19.39,0 35.16,-15.77 35.16,-35.17 0,-13.53 -7.67,-25.29 -18.9,-31.17 z M 63.37,31.3 c 5.7,4.19 9.399,10.93 9.399,18.52 0,12.66 -10.289,22.95 -22.939,22.95 -12.66,0 -22.96,-10.29 -22.96,-22.95 0,-12.65 10.3,-22.95 22.96,-22.95 3.11,0 6.08,0.62 8.78,1.75 l -3.27,13.62 a 9.353,9.353 0 0 0 -5.51,-1.79 c -5.18,0 -9.38,4.2 -9.38,9.37 0,5.18 4.2,9.38 9.38,9.38 4.47,0 8.22,-3.14 9.14,-7.35 l 0.08,-0.39 z M 49.83,81.17 c -17.29,0 -31.36,-14.06 -31.36,-31.35 0,-17.28 14.07,-31.34 31.36,-31.34 3.78,0 7.41,0.67 10.76,1.91 l -1.32,5.5 a 25.334,25.334 0 0 0 -9.439,-1.81 c -14.2,0 -25.75,11.55 -25.75,25.74 0,14.2 11.55,25.75 25.75,25.75 14.189,0 25.74,-11.55 25.74,-25.75 0,-8.95 -4.601,-16.86 -11.561,-21.47 l 1.24,-5.8 c 9.5,5.39 15.92,15.59 15.92,27.27 0,17.29 -14.06,31.35 -31.34,31.35 z"
         id="path2"
         style="fill:url(#linearGradient60);fill-opacity:1" />
      <path
         d="m 35.232,49.825 h -3 c 0,-9.7 7.892,-17.592 17.593,-17.592 v 3 C 41.778,35.232 35.232,41.778 35.232,49.825 Z m -26.316,0 h -3 C 5.916,25.614 25.613,5.916 49.825,5.916 v 3 C 27.268,8.916 8.916,27.268 8.916,49.825 Z"
         id="path3"
         style="fill:url(#linearGradient63);fill-opacity:1" />
    </g>
  </g>
  <!---->
</svg>
