<svg data-v-423bf9ae="" xmlns="http://www.w3.org/2000/svg" viewBox="0 0 170.13279062543015 60" class="font"><!----><!----><!----><g data-v-423bf9ae="" id="b94deac4-0a82-4b34-bd42-817058e03a77" fill="black" transform="matrix(6.128702640533447,0,0,6.128702640533447,-2.5740504264831543,-25.801834106445312)"><path d="M8.12 13.44C8.12 13.75 7.87 14 7.56 14C7.25 14 7 13.75 7 13.44L7 6.52C7 6.20 6.87 5.89 6.66 5.67C6.45 5.46 6.19 5.33 5.91 5.33C5.63 5.33 5.36 5.46 5.17 5.67C5.10 5.74 5.04 5.82 5.00 5.91C4.89 5.49 4.69 5.12 4.42 4.82C4.82 4.44 5.33 4.21 5.91 4.21C7.13 4.21 8.12 5.25 8.12 6.52ZM4.83 6.54L4.83 6.59C4.80 6.89 4.56 7.11 4.27 7.11C3.98 7.11 3.74 6.89 3.71 6.59L3.71 6.54C3.71 5.88 3.22 5.35 2.63 5.35C2.03 5.35 1.54 5.88 1.54 6.54L1.54 6.59C1.51 6.89 1.27 7.11 0.98 7.11C0.69 7.11 0.45 6.89 0.42 6.59L0.42 6.54C0.42 5.26 1.41 4.23 2.63 4.23C3.28 4.23 3.86 4.52 4.27 5.00C4.61 5.39 4.82 5.91 4.83 6.47ZM0.98 7.35C1.20 7.35 1.40 7.25 1.54 7.11L1.54 13.44C1.54 13.75 1.29 14 0.98 14C0.67 14 0.42 13.75 0.42 13.44L0.42 7.11C0.57 7.25 0.77 7.35 0.98 7.35ZM4.83 13.44C4.83 13.75 4.58 14 4.27 14C3.96 14 3.71 13.75 3.71 13.44L3.71 7.11C3.85 7.25 4.05 7.35 4.27 7.35C4.48 7.35 4.69 7.25 4.83 7.11ZM10.08 11.12C9.94 10.98 9.74 10.89 9.52 10.89C9.30 10.89 9.10 10.98 8.96 11.12L8.96 7.21C8.96 6.90 9.21 6.65 9.52 6.65C9.83 6.65 10.08 6.90 10.08 7.21ZM13.37 11.12C13.22 10.98 13.02 10.89 12.81 10.89C12.59 10.89 12.39 10.98 12.25 11.12L12.25 7.21C12.25 6.90 12.50 6.65 12.81 6.65C13.12 6.65 13.37 6.90 13.37 7.21ZM11.16 14C9.95 14 8.96 12.96 8.96 11.69C8.96 11.38 9.21 11.13 9.52 11.13C9.83 11.13 10.08 11.38 10.08 11.69C10.08 12.01 10.19 12.32 10.42 12.54C10.61 12.77 10.88 12.88 11.16 12.88C11.44 12.88 11.70 12.77 11.91 12.54C12.12 12.32 12.25 12.01 12.25 11.69C12.25 11.38 12.50 11.13 12.81 11.13C13.12 11.13 13.37 11.38 13.37 11.69C13.37 12.96 12.38 14 11.16 14ZM14.21 7.21C14.21 6.90 14.46 6.65 14.77 6.65L18.45 6.65C18.65 6.65 18.84 6.76 18.94 6.93C19.04 7.11 19.04 7.32 18.93 7.49L17.51 9.91C17.46 9.72 17.33 9.53 17.15 9.42C17.02 9.35 16.88 9.31 16.73 9.31C16.67 9.31 16.60 9.32 16.55 9.34L17.47 7.77L14.77 7.77C14.46 7.77 14.21 7.52 14.21 7.21ZM14.77 14C14.57 14 14.39 13.89 14.29 13.72C14.18 13.54 14.20 13.33 14.29 13.16L16.25 9.83C16.41 9.56 16.76 9.48 17.02 9.63C17.29 9.79 17.37 10.14 17.22 10.40L15.75 12.88L18.45 12.88C18.76 12.88 19.01 13.13 19.01 13.44C19.01 13.75 18.76 14 18.45 14ZM20.97 5.32C20.97 5.64 20.72 5.89 20.41 5.89C20.10 5.89 19.85 5.64 19.85 5.32C19.85 5.01 20.10 4.76 20.41 4.76C20.72 4.76 20.97 5.01 20.97 5.32ZM20.97 8.99C20.83 8.85 20.64 8.76 20.41 8.76C20.20 8.76 19.99 8.85 19.85 8.99L19.85 7.21C19.85 6.90 20.10 6.65 20.41 6.65C20.72 6.65 20.97 6.90 20.97 7.21ZM20.97 9.56L20.97 13.44C20.97 13.75 20.72 14 20.41 14C20.10 14 19.85 13.75 19.85 13.44L19.85 9.56L19.85 9.51C19.88 9.23 20.12 9.00 20.41 9.00C20.71 9.00 20.94 9.23 20.97 9.51ZM22.93 4.79C22.93 4.48 22.68 4.23 22.37 4.23C22.06 4.23 21.81 4.48 21.81 4.79L21.81 6.68C21.95 6.54 22.16 6.45 22.37 6.45C22.60 6.45 22.79 6.54 22.93 6.68ZM25.66 6.69C25.35 6.69 25.12 6.93 25.10 7.22L25.10 7.25C25.10 7.57 24.98 7.88 24.77 8.11C24.68 8.20 24.57 8.29 24.46 8.34C24.32 8.41 24.18 8.44 24.01 8.44C23.86 8.44 23.72 8.41 23.58 8.34C23.46 8.29 23.35 8.20 23.27 8.11C23.06 7.88 22.93 7.57 22.93 7.25C22.93 6.94 22.68 6.69 22.37 6.69C22.06 6.69 21.81 6.94 21.81 7.25C21.81 7.91 22.08 8.51 22.50 8.93C22.62 9.06 22.78 9.17 22.93 9.27C23.13 9.38 23.34 9.46 23.58 9.52C23.72 9.55 23.87 9.56 24.01 9.56C24.16 9.56 24.32 9.55 24.46 9.52C24.86 9.44 25.24 9.23 25.54 8.93C25.96 8.51 26.22 7.91 26.22 7.25L26.22 7.22C26.21 6.93 25.96 6.69 25.66 6.69ZM22.34 9.10C22.12 8.89 21.94 8.64 21.81 8.36L21.81 13.44C21.81 13.75 22.06 14 22.37 14C22.68 14 22.93 13.75 22.93 13.44L22.93 10.54C22.95 10.23 23.06 9.97 23.27 9.74L23.31 9.70C23.18 9.66 23.06 9.60 22.93 9.53C22.72 9.42 22.51 9.28 22.34 9.10ZM24.71 9.70C24.74 9.72 24.75 9.73 24.77 9.74C24.98 9.98 25.10 10.28 25.10 10.60L25.10 13.44C25.10 13.75 25.35 14 25.66 14C25.97 14 26.22 13.75 26.22 13.44L26.22 10.60C26.22 10.04 26.03 9.51 25.69 9.10C25.42 9.38 25.09 9.58 24.71 9.70ZM28.18 5.32C28.18 5.64 27.93 5.89 27.62 5.89C27.31 5.89 27.06 5.64 27.06 5.32C27.06 5.01 27.31 4.76 27.62 4.76C27.93 4.76 28.18 5.01 28.18 5.32ZM28.18 8.99C28.04 8.85 27.85 8.76 27.62 8.76C27.41 8.76 27.20 8.85 27.06 8.99L27.06 7.21C27.06 6.90 27.31 6.65 27.62 6.65C27.93 6.65 28.18 6.90 28.18 7.21ZM28.18 9.56L28.18 13.44C28.18 13.75 27.93 14 27.62 14C27.31 14 27.06 13.75 27.06 13.44L27.06 9.56L27.06 9.51C27.09 9.23 27.33 9.00 27.62 9.00C27.92 9.00 28.15 9.23 28.18 9.51Z"></path></g><!----><!----></svg>